<svg xmlns="http://www.w3.org/2000/svg" version="1.1" xmlns:xlink="http://www.w3.org/1999/xlink" xmlns:svgjs="http://svgjs.dev/svgjs" viewBox="0 0 800 800"><defs><linearGradient x1="50%" y1="0%" x2="50%" y2="100%" id="ccchaos-grad"><stop stop-color="hsl(44, 85%, 47%)" stop-opacity="1" offset="0%"></stop><stop stop-color="hsl(335, 87%, 70%)" stop-opacity="1" offset="100%"></stop></linearGradient></defs><g stroke-width="2" stroke="url(#ccchaos-grad)" fill="none" stroke-linecap="round"><path d="M382.14 70.85Q391.54 78.35 401.3 85.73 411.41 92.88 421.88 99.72 432.68 106.15 443.78 112.12 455.16 117.58 466.78 122.52 478.59 126.92 490.53 130.83 502.56 134.29 514.62 137.37 526.64 140.16 538.56 142.76 550.32 145.3 561.86 147.88 573.13 150.64 584.06 153.66 594.6 157.07 604.72 160.94 614.39 165.35 623.56 170.32 632.22 175.88 640.37 182.01 648 188.68 655.13 195.83 661.77 203.38 667.96 211.21 673.74 219.21 679.16 227.25 684.28 235.21 689.17 242.95 680.77 253.37 672.76 263.79 665.72 274.21 660.17 284.63 656.51 295.04 655.01 305.46 655.78 315.88 658.77 326.3 663.75 336.72 670.37 347.14 678.12 357.55 686.46 367.97 694.76 378.39 702.42 388.81 708.87 399.23 713.65 409.65 716.4 420.06 716.92 430.48 715.18 440.9 711.29 451.32 705.55 461.74 698.38 472.16 690.3 482.58 681.9 493 673.8 503.41 666.6 513.83 660.82 524.25 656.88 534.67 655.08 545.09 655.55 555.51 652.28 576.15 641.73 581.38 631.7 584.39 621.39 588.91 609.95 597.19 597.5 608.12 590.58 615.13 583.21 622.93 575.37 631.4 567.07 640.4 558.3 649.77 549.08 659.31 539.41 668.82 529.34 678.11 518.89 687 508.11 695.3 497.04 702.87 485.74 709.59 474.25 715.39 462.64 720.23 450.95 724.12 439.26 727.11 427.6 729.29 416.03 730.78 404.6 731.76 393.35 732.4 386.9 722.6 380.43 712.95 373.88 703.65 367.21 694.88 360.38 686.8 353.36 679.54 346.11 673.18 338.62 667.77 330.85 663.32 322.82 659.78 314.5 657.07 305.89 655.09 297.02 653.67 287.88 652.65 278.5 651.84 268.9 651.03 259.1 650.04 249.14 648.68 239.04 646.78 228.85 644.19 218.58 640.81 208.29 636.57 198 631.42 187.74 625.39 177.54 618.5 167.43 610.86 157.43 602.57 147.55 593.78 137.82 584.66 128.24 575.4 118.81 566.17 109.54 557.16 108.63 546.91 108.11 536.66 108.02 526.41 108.36 516.16 109.12 505.91 110.24 495.65 111.63 485.4 113.19 475.15 114.82 464.9 116.38 454.65 117.76 444.4 118.87 434.15 119.62 423.9 119.96 413.65 119.86 403.4 119.32 393.15 118.4 382.9 117.16 372.64 115.68 362.39 114.07 352.14 112.47 341.89 110.97 331.64 109.69 321.39 108.73 311.14 108.15 300.89 108 290.64 108.29 280.39 109 270.14 110.07 259.89 111.43 249.64 118.7 233.08 134.33 224.52 144.29 222.22 154.28 219.77 164.27 217.03 174.23 213.9 184.13 210.3 193.94 206.16 203.64 201.44 213.2 196.13 222.58 190.25 231.78 183.83 240.76 176.94 249.52 169.66 258.04 162.09 266.32 154.35 274.36 146.54 282.16 138.81 289.75 131.24 297.13 123.97 304.33 117.06 311.37 110.61 325.12 99.49 338.75 89.96 352.61 82.71 366.89 76.44 378.26 72.24 382.14 70.85" stroke-dasharray="7 1" transform="rotate(0, 400, 400)" opacity="0.19"></path><path d="M384.72 83.57Q394.52 90.82 404.62 97.97 415.02 104.91 425.68 111.55 436.57 117.83 447.67 123.69 458.93 129.07 470.31 133.96 481.76 138.35 493.23 142.26 504.67 145.73 516.02 148.8 527.23 151.57 538.26 154.12 549.04 156.54 559.53 158.94 569.69 161.43 579.48 164.11 588.87 167.09 597.83 170.45 606.34 174.25 614.39 178.57 621.97 183.43 629.1 188.83 635.78 194.78 642.05 201.23 647.92 208.13 653.44 215.39 658.66 222.94 663.62 230.66 668.39 238.44 673.02 246.16 665.22 256.14 658.09 266.12 652.1 276.11 647.66 286.09 645.07 296.07 644.52 306.05 646.03 316.03 649.51 326.01 654.71 335.99 661.29 345.97 668.8 355.95 676.73 365.93 684.54 375.91 691.7 385.89 697.73 395.87 702.22 405.85 704.87 415.83 705.48 425.82 704.03 435.8 700.61 445.78 695.46 455.76 688.91 465.74 681.43 475.72 673.5 485.7 665.68 495.68 658.49 505.66 652.42 515.64 647.88 525.62 645.17 535.61 644.49 545.59 638.46 565.01 627.18 570.08 617.26 573.95 607.37 579.6 596.91 589.03 585.76 600.91 579.67 608.21 573.23 616.15 566.41 624.62 559.18 633.48 551.54 642.56 543.48 651.71 535 660.73 526.12 669.46 516.84 677.74 507.21 685.42 497.24 692.4 486.98 698.57 476.45 703.88 465.71 708.31 454.8 711.88 443.77 714.63 432.67 716.66 421.54 718.07 410.43 719.03 399.38 719.68 393.16 710.3 386.82 701.05 380.31 692.1 373.6 683.63 366.68 675.76 359.51 668.62 352.07 662.3 344.37 656.84 336.39 652.25 328.14 648.52 319.62 645.59 310.84 643.37 301.82 641.73 292.58 640.53 283.14 639.62 273.53 638.83 263.78 637.97 253.91 636.88 243.97 635.4 233.97 633.39 223.96 630.72 213.97 627.32 204.01 623.11 194.12 618.08 184.33 612.24 174.64 605.62 165.09 598.3 155.67 590.4 146.4 582.02 137.29 573.33 128.33 564.47 119.53 555.62 118.82 545.72 118.52 535.82 118.67 525.93 119.24 516.03 120.2 506.13 121.49 496.24 123.01 486.34 124.67 476.44 126.35 466.55 127.93 456.65 129.32 446.75 130.41 436.85 131.14 426.96 131.44 417.06 131.31 407.16 130.75 397.27 129.8 387.37 128.52 377.47 127.01 367.58 125.35 357.68 123.67 347.78 122.08 337.89 120.69 327.99 119.59 318.09 118.85 308.2 118.53 298.3 118.65 288.4 119.19 278.51 120.13 268.61 121.4 258.71 128.47 242.8 143.58 234.61 153.21 232.26 162.88 229.63 172.59 226.63 182.29 223.18 191.97 219.23 201.6 214.73 211.16 209.68 220.6 204.09 229.91 197.99 239.07 191.43 248.04 184.48 256.82 177.23 265.38 169.79 273.71 162.25 281.81 154.73 289.67 147.33 297.3 140.15 304.7 133.29 311.89 126.8 318.88 120.77 332.31 110.41 345.39 101.53 358.25 94.75 371.23 88.86 381.3 84.88 384.72 83.57" stroke-dasharray="1 0" transform="rotate(6, 400, 400)" opacity="0.68"></path><path d="M388.98 96.29Q399 103.29 409.24 110.2 419.68 116.92 430.29 123.37 441.02 129.49 451.85 135.22 462.74 140.52 473.63 145.36 484.49 149.72 495.27 153.63 505.92 157.11 516.39 160.2 526.66 162.96 536.67 165.47 546.38 167.81 555.77 170.07 564.81 172.36 573.46 174.76 589.37 180.45 604.05 187.25 616.74 196.38 628.36 207.05 638.51 220.02 648.05 234.06 651.32 250.01 643.88 268.07 638.97 277.61 635.63 287.16 634.05 296.7 634.35 306.24 636.51 315.78 640.38 325.33 645.73 334.87 652.22 344.41 659.44 353.95 666.96 363.5 674.28 373.04 680.96 382.58 686.59 392.12 690.8 401.67 693.33 411.21 694.03 420.75 692.85 430.29 689.87 439.83 685.27 449.38 679.34 458.92 672.45 468.46 665.03 478 657.55 487.54 650.47 497.09 644.24 506.63 639.24 516.17 635.79 525.71 634.1 535.26 625.37 553.89 613.25 559.28 603.21 564.2 593.46 571.02 583.62 581.5 573.42 594.15 567.98 601.62 562.28 609.6 556.3 617.97 549.99 626.6 543.34 635.34 536.33 644.03 528.95 652.52 521.2 660.67 513.08 668.34 504.6 675.43 495.78 681.82 486.63 687.46 477.17 692.31 467.45 696.35 457.5 699.61 447.34 702.14 437.02 704.03 426.57 705.37 416.05 706.3 405.48 706.96 399.25 697.99 392.81 689.14 386.16 680.55 379.26 672.38 372.1 664.74 364.69 657.75 357 651.48 349.05 646 340.84 641.31 332.38 637.41 323.68 634.27 314.77 631.81 305.66 629.95 296.38 628.56 286.96 627.51 277.42 626.66 267.79 625.85 258.11 624.94 248.39 623.77 238.68 622.21 228.99 620.15 219.36 617.48 209.8 614.12 200.34 610.02 191 605.18 181.78 599.59 172.71 593.29 163.78 586.36 155 578.87 146.38 570.93 137.91 562.68 129.58 554.24 129.11 544.7 129.07 535.16 129.46 525.62 130.26 516.07 131.42 506.53 132.86 496.99 134.49 487.45 136.23 477.91 137.94 468.37 139.53 458.83 140.91 449.29 141.97 439.74 142.66 430.2 142.93 420.66 142.77 411.12 142.18 401.58 141.21 392.04 139.91 382.5 138.36 372.95 136.67 363.41 134.93 353.87 133.26 344.33 131.76 334.79 130.52 325.25 129.63 315.7 129.13 306.16 129.06 296.62 129.42 287.08 130.2 277.54 131.33 268 138.11 252.64 152.63 244.55 161.89 242.01 171.22 239.1 180.6 235.77 190.02 231.96 199.44 227.64 208.84 222.8 218.2 217.45 227.49 211.63 236.69 205.36 245.77 198.72 254.7 191.79 263.48 184.65 272.06 177.39 280.45 170.11 288.62 162.91 296.57 155.88 304.3 149.11 311.79 142.66 319.05 136.61 326.09 130.99 339.48 121.37 352.36 113.13 364.65 106.81 376.78 101.28 385.92 97.53 388.98 96.29" stroke-dasharray="5 3" transform="rotate(12, 400, 400)" opacity="0.95"></path><path d="M394.47 109.02Q404.47 115.77 414.6 122.43 424.83 128.93 435.13 135.18 445.45 141.13 455.78 146.73 466.05 151.93 476.25 156.71 486.32 161.05 496.23 164.96 505.95 168.45 515.43 171.55 524.66 174.33 533.59 176.82 550.33 181.26 566.01 185.58 579.89 190.54 592.7 196.35 603.89 204.17 614.25 213.39 623.6 224.92 632.61 237.65 636.19 252.67 630.21 269.88 626.38 278.99 624.08 288.09 623.44 297.2 624.5 306.3 627.19 315.41 631.37 324.51 636.79 333.62 643.14 342.73 650.05 351.83 657.14 360.94 663.98 370.04 670.2 379.15 675.43 388.25 679.37 397.36 681.79 406.46 682.56 415.57 681.63 424.67 679.06 433.78 674.99 442.88 669.66 451.99 663.37 461.1 656.48 470.2 649.4 479.31 642.52 488.41 636.24 497.52 630.92 506.62 626.88 515.73 624.33 524.83 613.08 543.06 600.06 549.14 589.73 555.21 579.88 563.2 570.36 574.55 560.75 587.77 555.78 595.3 550.64 603.21 545.31 611.39 539.75 619.71 533.93 628.03 527.82 636.22 521.41 644.16 514.68 651.72 507.63 658.79 500.24 665.28 492.53 671.12 484.51 676.25 476.17 680.66 467.54 684.33 458.63 687.31 449.48 689.63 440.11 691.38 430.55 692.66 420.83 693.56 410.98 694.23 404.54 685.67 397.86 677.22 390.93 668.99 383.75 661.12 376.3 653.73 368.61 646.9 360.66 640.72 352.47 635.23 344.06 630.47 335.44 626.44 326.64 623.1 317.67 620.43 308.56 618.33 299.33 616.73 290.02 615.5 280.64 614.55 271.23 613.72 261.82 612.9 252.42 611.94 243.06 610.73 233.77 609.14 224.57 607.08 215.47 604.46 206.49 601.21 197.63 597.3 188.92 592.7 180.36 587.42 171.95 581.5 163.68 574.98 155.57 567.94 147.59 560.47 139.75 552.67 139.55 543.49 139.78 534.31 140.42 525.13 141.44 515.95 142.77 506.77 144.35 497.59 146.08 488.41 147.86 479.22 149.59 470.04 151.17 460.86 152.51 451.68 153.54 442.5 154.18 433.32 154.42 424.14 154.22 414.96 153.61 405.78 152.62 396.6 151.31 387.41 149.75 378.23 148.03 369.05 146.25 359.87 144.51 350.69 142.91 341.51 141.55 332.33 140.5 323.15 139.82 313.97 139.56 304.78 139.72 295.6 140.3 286.42 141.26 277.24 147.65 262.36 161.51 254.17 170.38 251.32 179.33 248.06 188.35 244.35 197.43 240.17 206.54 235.5 215.67 230.36 224.79 224.77 233.88 218.77 242.91 212.41 251.87 205.77 260.72 198.92 269.45 191.94 278.03 184.93 286.44 177.95 294.68 171.11 302.71 164.48 310.54 158.13 318.15 152.12 332.58 141.51 346.36 132.19 359.13 124.96 371.39 118.78 388.75 111.39 394.47 109.02" stroke-dasharray="5 4" transform="rotate(18, 400, 400)" opacity="0.35"></path><path d="M400.57 121.74Q420.06 134.65 439.59 146.97 458.88 158.2 477.7 168.01 495.78 176.21 512.92 182.84 528.95 188.14 543.74 192.52 557.24 196.54 569.48 200.79 580.56 205.87 590.63 212.26 599.95 220.31 608.79 230.12 617.48 241.61 626.39 254.44 617.12 271.79 613.01 289.14 614.92 306.49 622.45 323.84 634.03 341.19 647.27 358.53 659.41 375.88 667.94 393.23 671.08 410.58 668.19 427.93 659.86 445.27 647.82 462.62 634.58 479.97 622.87 497.32 615.13 514.67 612.97 532.01 599.68 535.11 587.72 539.84 576.88 546.75 566.88 556.12 557.38 567.88 548.08 581.7 538.65 596.93 528.78 612.77 518.22 628.29 506.75 642.61 494.23 655 480.58 664.96 465.78 672.28 449.87 677.13 432.98 679.95 415.25 681.51 401.49 665.3 386.75 649.88 371.07 636.09 354.55 624.56 337.34 615.6 319.59 609.23 301.52 605.08 283.31 602.56 265.16 600.84 247.24 599.02 229.7 596.22 212.65 591.7 196.16 584.94 180.25 575.72 164.91 564.15 150.09 550.61 150.68 532.98 152.78 515.35 155.97 497.73 159.57 480.1 162.84 462.47 165.11 444.84 165.9 427.21 165.04 409.58 162.72 391.95 159.42 374.32 155.82 356.69 152.67 339.06 150.62 321.43 150.1 303.8 151.22 286.17 153.74 268.54 170.28 263.24 187.25 256.39 204.58 247.77 222.14 237.4 239.79 225.54 257.37 212.6 274.7 199.15 291.61 185.81 307.95 173.14 323.59 161.65 338.42 151.66 352.39 143.29 365.51 136.46 377.84 130.89 395.02 123.95 400.57 121.74" stroke-dasharray="1 8" transform="rotate(24, 400, 400)" opacity="0.50"></path><path d="M406.6 134.46Q424.99 146.86 443.1 158.73 460.72 169.63 477.65 179.24 493.71 187.38 508.77 194.05 522.74 199.39 535.58 203.76 547.32 207.59 558.03 211.41 567.85 215.75 576.99 221.1 585.67 227.84 594.18 236.17 602.8 246.13 611.85 257.57 604.63 274.07 602.41 290.57 605.6 307.07 613.61 323.57 624.9 340.07 637.35 356.57 648.6 373.06 656.51 389.56 659.59 406.06 657.25 422.56 649.94 439.06 639.05 455.56 626.63 472.06 615.03 488.56 606.46 505.06 602.54 521.56 588.78 525.59 576.32 531.46 565.01 539.49 554.63 549.74 544.96 562.01 535.72 575.88 526.64 590.7 517.44 605.74 507.88 620.2 497.72 633.34 486.8 644.59 474.97 653.58 462.16 660.2 448.34 664.61 433.54 667.26 417.84 668.78 403.4 653.37 388.1 638.64 372.03 625.32 355.33 613.97 338.16 604.92 320.69 598.22 303.11 593.65 285.6 590.74 268.3 588.84 251.37 587.19 234.89 584.99 218.94 581.56 203.56 576.33 188.75 568.97 174.46 559.39 160.63 547.77 161.79 530.89 164.3 514.01 167.7 497.13 171.35 480.25 174.54 463.37 176.69 446.49 177.37 429.61 176.47 412.73 174.15 395.85 170.85 378.97 167.2 362.09 163.88 345.21 161.54 328.33 160.6 311.45 161.25 294.57 163.37 277.69 178.99 271.65 195.06 264.01 211.52 254.73 228.3 243.95 245.28 231.98 262.32 219.26 279.26 206.32 295.96 193.7 312.24 181.89 327.98 171.28 343.05 162.1 357.36 154.44 370.86 148.17 383.53 143.02 401.01 136.53 406.6 134.46" stroke-dasharray="6 2" transform="rotate(30, 400, 400)" opacity="0.78"></path><path d="M411.91 147.18Q428.81 159.06 445.21 170.48 460.95 181.03 475.89 190.43 489.93 198.49 503.01 205.17 515.1 210.58 526.24 214.97 536.49 218.7 545.97 222.21 554.85 225.97 563.33 230.44 571.63 236 580 242.93 588.69 251.36 597.96 261.27 592.76 276.93 592.25 292.6 596.52 308.27 604.82 323.94 615.74 339.61 627.38 355.27 637.76 370.94 645.08 386.61 648.08 402.28 646.25 417.94 639.91 433.61 630.14 449.28 618.62 464.95 607.34 480.61 598.24 496.28 592.88 511.95 578.77 517.07 565.87 524.07 554.1 533.07 543.3 543.98 533.32 556.52 523.94 570.21 514.94 584.44 506.1 598.57 497.17 611.91 487.96 623.89 478.27 634.04 467.94 642.12 456.85 648.07 444.92 652.09 432.12 654.56 418.45 656.06 403.46 641.45 387.79 627.4 371.57 614.57 354.96 603.45 338.1 594.36 321.17 587.39 304.32 582.42 287.7 579.11 271.42 576.94 255.58 575.28 240.26 573.48 225.47 570.88 211.23 566.93 197.52 561.22 184.28 553.54 171.43 543.9 173.12 527.79 175.99 511.68 179.55 495.57 183.18 479.46 186.27 463.35 188.27 447.23 188.85 431.12 187.9 415.01 185.59 398.9 182.32 382.79 178.64 366.68 175.2 350.56 172.58 334.45 171.23 318.34 171.39 302.23 173.03 286.12 187.69 279.27 202.81 270.91 218.35 261.1 234.25 250.06 250.44 238.15 266.8 225.8 283.21 213.48 299.52 201.66 315.6 190.74 331.31 181.01 346.5 172.64 361.07 165.65 374.94 159.91 388.04 155.17 406.13 149.12 411.91 147.18" stroke-dasharray="11 9" transform="rotate(36, 400, 400)" opacity="0.81"></path><path d="M415.89 159.9Q431.05 171.26 445.57 182.21 459.36 192.39 472.35 201.56 484.49 209.51 495.78 216.2 506.24 221.68 515.96 226.13 525.03 229.83 533.59 233.14 541.82 236.47 549.89 240.22 558.01 244.77 566.4 250.43 575.26 257.39 584.78 265.73 581.51 280.59 582.51 295.44 587.63 310.3 596.08 325.15 606.53 340 617.37 354.86 626.9 369.71 633.65 384.57 636.57 399.42 635.2 414.27 629.75 429.13 621.08 443.98 610.53 458.84 599.74 473.69 590.39 488.54 583.93 503.4 569.62 509.64 556.39 517.66 544.21 527.43 533 538.76 522.64 551.31 512.99 564.61 503.87 578.1 495.11 591.22 486.52 603.43 477.89 614.25 469.06 623.35 459.86 630.57 450.15 635.91 439.82 639.56 428.8 641.87 417.02 643.34 401.73 629.51 385.98 616.16 369.91 603.84 353.68 593 337.43 583.93 321.29 576.76 305.38 571.43 289.82 567.7 274.69 565.19 260.05 563.41 245.93 561.79 232.33 559.77 219.24 556.82 206.62 552.52 194.4 546.58 182.5 538.86 184.69 523.54 187.85 508.22 191.5 492.89 195.07 477.57 198.01 462.24 199.85 446.92 200.32 431.59 199.33 416.27 197.04 400.94 193.82 385.62 190.15 370.29 186.61 354.97 183.76 339.64 182.02 324.32 181.68 308.99 182.79 293.67 196.47 286.05 210.58 277.07 225.14 266.89 240.09 255.79 255.38 244.12 270.93 232.28 286.65 220.69 302.41 209.73 318.1 199.71 333.58 190.85 348.73 183.26 363.42 176.92 377.56 171.69 391.05 167.33 409.87 161.71 415.89 159.9" stroke-dasharray="4 2" transform="rotate(42.00000000000001, 400, 400)" opacity="0.68"></path><path d="M418.12 172.62Q431.41 183.45 444.04 193.91 455.95 203.72 467.12 212.62 477.57 220.45 487.33 227.12 496.47 232.66 505.07 237.2 521.15 244.05 536.89 250.38 545 254.11 553.5 258.66 562.57 264.28 572.35 271.11 570.85 285.16 573.15 299.22 578.92 313.28 587.35 327.34 597.27 341.4 607.29 355.46 616.01 369.51 622.22 383.57 625.04 397.63 624.08 411.69 619.48 425.75 611.87 439.81 602.32 453.86 592.17 467.92 582.84 481.98 575.62 496.04 561.26 503.32 547.83 512.18 535.35 522.48 523.78 533.97 513.04 546.3 503.06 559 493.7 571.62 484.83 583.67 476.3 594.72 467.96 604.42 459.64 612.53 451.2 618.95 442.5 623.72 433.42 627.03 423.85 629.19 413.71 630.62 398.44 617.57 382.96 604.93 367.38 593.15 351.84 582.63 336.46 573.64 321.33 566.33 306.55 560.69 292.2 556.56 278.31 553.68 264.92 551.65 252.02 550.04 239.62 548.36 227.66 546.15 216.09 542.98 204.86 538.53 193.88 532.58 196.5 518.06 199.88 503.53 203.55 489.01 207.01 474.49 209.76 459.97 211.43 445.45 211.78 430.93 210.76 416.41 208.51 401.89 205.35 387.37 201.72 372.85 198.13 358.33 195.08 343.81 192.99 329.29 192.16 314.77 192.7 300.25 205.37 291.96 218.47 282.53 231.99 272.19 245.92 261.22 260.22 249.96 274.84 238.76 289.72 227.98 304.76 217.92 319.86 208.81 334.91 200.81 349.81 193.97 364.42 188.25 378.65 183.51 392.4 179.52 411.85 174.31 418.12 172.62" stroke-dasharray="5 5" transform="rotate(48, 400, 400)" opacity="0.44"></path><path d="M418.34 185.35Q429.79 195.64 440.63 205.61 450.83 215.02 460.43 223.63 469.46 231.3 478 237.93 486.11 243.53 493.92 248.15 509.11 254.99 524.53 260.85 532.73 263.94 541.41 267.59 550.69 272.03 560.69 277.47 560.77 290.75 564.13 304.03 570.33 317.31 578.62 330.58 587.95 343.86 597.16 357.14 605.11 370.42 610.79 383.7 613.5 396.98 612.91 410.26 609.08 423.54 602.49 436.82 593.97 450.1 584.58 463.38 575.49 476.66 567.84 489.94 553.59 498.08 540.14 507.53 527.49 518.09 515.65 529.48 504.6 541.35 494.28 553.3 484.62 564.94 475.52 575.88 466.88 585.78 458.57 594.4 450.48 601.58 442.47 607.25 434.41 611.49 426.2 614.48 417.71 616.5 408.87 617.89 394.01 605.62 379.15 593.68 364.38 582.46 349.81 572.31 335.53 563.47 321.6 556.08 308.09 550.18 295.02 545.69 282.43 542.42 270.31 540.08 258.64 538.34 247.39 536.79 236.53 535.04 225.98 532.71 215.69 529.46 205.58 525.05 208.54 511.35 212.05 497.64 215.68 483.94 218.98 470.24 221.52 456.54 223.01 442.84 223.24 429.14 222.19 415.44 219.99 401.74 216.92 388.03 213.36 374.33 209.75 360.63 206.54 346.93 204.14 333.23 202.84 319.53 202.81 305.83 214.49 297.04 226.54 287.38 239 277.09 251.85 266.45 265.09 255.75 278.69 245.32 292.6 235.41 306.76 226.27 321.09 218.07 335.5 210.9 349.9 204.78 364.2 199.65 378.29 195.37 392.07 191.72 411.89 186.91 418.34 185.35" stroke-dasharray="6 8" transform="rotate(54, 400, 400)" opacity="0.11"></path><path d="M416.52 198.07Q426.3 207.81 435.55 217.28 444.32 226.27 452.63 234.57 460.56 242.05 468.18 248.61 482.85 258.55 497.49 266.12 513.19 271.55 530.17 277.12 539.64 280.6 549.8 284.83 551.23 297.35 555.4 309.86 561.86 322.37 569.88 334.89 578.57 347.4 586.98 359.91 594.18 372.43 599.36 384.94 601.96 397.45 601.68 409.97 598.56 422.48 592.94 435 585.44 447.51 576.9 460.02 568.26 472.54 560.48 485.05 546.53 493.82 533.2 503.58 520.55 514.12 508.59 525.15 497.32 536.36 486.73 547.43 476.78 558.01 467.41 567.82 458.55 576.61 450.12 584.2 442.02 590.5 434.16 595.49 418.71 601.53 403.06 605.17 388.98 593.67 375.06 582.44 361.38 571.81 348.01 562.06 335 553.42 322.4 546.02 310.23 539.94 298.5 535.13 287.2 531.48 276.33 528.78 265.85 526.79 255.72 525.2 245.88 523.68 236.3 521.9 223.84 511.53 224.36 490.63 227.88 477.76 230.97 464.89 233.28 452.02 234.57 439.15 234.69 426.28 233.62 413.41 231.48 400.54 228.51 387.67 225.05 374.8 221.46 361.93 218.16 349.06 215.5 336.19 213.78 323.32 213.19 310.45 223.86 301.39 234.88 291.73 246.26 281.7 258.02 271.56 270.15 261.58 282.65 251.99 295.48 243 308.62 234.8 322.01 227.48 335.58 221.12 349.27 215.68 363 211.11 376.67 207.25 390.21 203.94 410.02 199.51 416.52 198.07" stroke-dasharray="1 2" transform="rotate(60, 400, 400)" opacity="0.34"></path><path d="M412.88 210.79Q421.23 219.98 429.19 228.94 436.81 237.48 444.16 245.45 451.3 252.71 458.3 259.17 472.3 269.2 486.68 276.96 502.56 282.24 519.83 287.14 529.42 289.89 539.63 293.14 542.17 304.9 546.93 316.66 553.45 328.42 561.1 340.18 569.12 351.93 576.75 363.69 583.23 375.45 587.93 387.21 590.4 398.97 590.4 410.72 587.92 422.48 583.21 434.24 576.72 446 569.09 457.76 561.07 469.52 553.42 481.28 539.93 490.37 526.91 500.14 514.43 510.39 502.5 520.84 491.17 531.23 480.42 541.3 470.25 550.78 460.63 559.47 451.53 567.18 442.89 573.81 426.88 583.13 411.64 589.4 404.26 591.15 396.9 592.45 383.92 581.71 371.22 571.19 358.84 561.16 346.83 551.86 335.2 543.47 323.98 536.14 313.17 529.94 302.76 524.87 292.74 520.87 283.06 517.81 273.7 515.5 264.61 513.73 255.74 512.23 247.04 510.73 235.85 501.83 236.78 482.65 240.13 470.62 242.97 458.59 245.04 446.56 246.13 434.53 246.13 422.5 245.05 410.47 242.98 398.44 240.14 386.41 236.8 374.37 233.28 362.34 229.92 350.31 227.06 338.28 224.97 326.25 223.86 314.22 233.57 305.13 243.56 295.71 253.87 286.15 264.52 276.69 275.52 267.52 286.87 258.84 298.56 250.81 310.58 243.53 322.89 237.08 335.45 231.47 348.22 226.68 361.14 222.62 374.13 219.17 387.14 216.18 406.48 212.12 412.88 210.79" stroke-dasharray="5 1" transform="rotate(66, 400, 400)" opacity="0.45"></path><path d="M407.82 223.51Q415.04 232.14 422.02 240.57 428.83 248.66 435.51 256.27 442.14 263.27 448.77 269.59 462.47 279.67 476.82 287.64 492.92 292.96 510.37 297.51 519.98 299.76 530.14 302.28 533.53 313.29 538.65 324.29 545.08 335.3 552.27 346.31 559.6 357.32 566.46 368.33 572.25 379.34 576.5 390.35 578.84 401.35 579.06 412.36 577.16 423.37 573.29 434.38 567.78 445.39 561.1 456.4 553.81 467.41 546.54 478.42 533.67 487.52 521.13 497.03 508.98 506.73 497.27 516.41 486.03 525.86 475.27 534.86 465.01 543.23 455.24 550.82 445.94 557.51 437.1 563.23 420.79 571.32 405.44 576.86 398.19 578.48 391.09 579.73 379.45 569.75 368.14 559.94 357.19 550.53 346.6 541.7 336.39 533.63 326.56 526.44 317.08 520.2 307.93 514.94 299.1 510.64 290.54 507.22 274.16 502.72 258.2 499.44 248.13 491.56 249.3 473.95 252.41 462.76 254.98 451.57 256.78 440.38 257.67 429.19 257.56 418 256.47 406.81 254.49 395.62 251.79 384.43 248.6 373.24 245.18 362.05 241.83 350.87 238.83 339.68 236.45 328.49 234.87 317.3 243.64 308.45 252.64 299.49 261.91 290.59 271.47 281.93 281.33 273.67 291.52 265.94 302.03 258.86 312.86 252.48 324 246.85 335.42 241.97 347.1 237.78 359 234.2 371.08 231.13 383.28 228.43 401.68 224.73 407.82 223.51" stroke-dasharray="10 11" transform="rotate(72, 400, 400)" opacity="0.29"></path><path d="M401.89 236.23Q408.3 244.29 414.62 252.19 420.9 259.8 427.19 267.02 433.53 273.73 439.99 279.87 453.62 289.93 468.06 298.08 475.87 301.14 484.07 303.75 492.7 306.01 501.77 308.05 511.29 310.02 521.26 312.05 525.24 322.31 530.52 332.58 536.71 342.84 543.37 353.1 549.99 363.36 556.11 373.62 561.26 383.88 565.07 394.14 567.27 404.4 567.68 414.66 566.29 424.92 563.19 435.19 558.6 445.45 552.88 455.71 546.43 465.97 539.72 476.23 527.6 485.05 515.69 494.02 504.06 502.97 492.74 511.73 481.77 520.14 471.18 528.05 460.98 535.32 451.19 541.86 441.81 547.59 432.84 552.48 416.22 559.45 400.62 564.32 393.33 565.81 386.26 567.01 376.1 557.79 366.26 548.69 356.77 539.91 347.61 531.6 338.78 523.89 330.26 516.9 322.03 510.7 314.06 505.33 298.85 497.43 284.1 491.67 264.21 481.72 261.87 464.78 264.7 454.43 266.97 444.08 268.51 433.73 269.2 423.38 268.99 413.04 267.9 402.69 266.02 392.34 263.47 381.99 260.45 371.64 257.17 361.3 253.88 350.95 250.81 340.6 248.2 330.25 246.24 319.91 254.11 311.54 262.17 303.23 270.44 295.14 278.94 287.39 287.7 280.08 296.74 273.32 306.07 267.17 315.69 261.67 325.6 256.81 335.81 252.6 346.28 248.96 357.02 245.84 367.98 243.12 379.13 240.7 396.17 237.34 401.89 236.23" stroke-dasharray="3 9" transform="rotate(78, 400, 400)" opacity="0.43"></path><path d="M395.74 248.95Q401.65 256.43 407.58 263.79 413.56 270.91 419.65 277.71 432.4 289.75 445.8 300.24 460.64 307.98 476.47 314.19 485.02 316.55 493.95 318.61 503.25 320.47 512.92 322.25 517.24 331.76 522.48 341.27 528.32 350.78 534.39 360.29 540.3 369.81 545.7 379.32 550.24 388.83 553.65 398.34 555.69 407.85 556.26 417.36 555.31 426.87 552.9 436.39 549.18 445.9 544.39 455.41 538.83 464.92 532.83 474.43 521.58 482.68 510.44 490.89 499.48 498.93 488.72 506.68 478.2 514.01 467.96 520.82 458.01 527.03 448.37 532.57 439.07 537.42 430.1 541.56 413.31 547.52 397.49 551.78 382.19 549.48 365.91 537.44 357.83 529.3 350.02 521.52 342.47 514.23 335.16 507.51 321.2 496.39 307.7 487.36 294.62 481.57 281.6 477.3 273.31 470.39 274.48 455.46 276.99 445.94 278.94 436.43 280.2 426.92 280.7 417.41 280.41 407.9 279.33 398.39 277.55 388.87 275.17 379.36 272.34 369.85 269.24 360.34 266.06 350.83 263 341.31 260.25 331.8 257.98 322.29 265.02 314.61 272.18 307.14 279.51 299.96 287.01 293.17 294.72 286.85 302.65 281.04 310.82 275.79 319.25 271.1 327.94 266.97 336.89 263.37 346.1 260.25 355.58 257.53 365.29 255.14 375.24 252.99 390.57 249.95 395.74 248.95" stroke-dasharray="4 3" transform="rotate(84.00000000000001, 400, 400)" opacity="0.21"></path><path d="M390.07 261.68Q401.43 275.38 413.29 288.34 425.89 300.02 439.43 309.99 454.04 318.08 469.83 324.31 486.83 328.99 505.01 332.61 514.48 350.12 525.31 367.63 535.24 385.14 542.22 402.65 544.79 420.16 542.42 437.67 535.61 455.17 525.77 472.68 505.22 487.44 485.02 501.14 465.4 513.14 446.59 522.97 428.74 530.46 411.94 535.75 396.22 539.23 381.53 541.56 367.27 526.16 353.88 511.48 341.21 498.26 329.07 487.05 317.25 478.14 305.53 471.51 293.72 466.86 281.63 463.64 287.1 446.28 290.88 428.92 292.19 411.55 290.76 394.19 286.89 376.82 281.38 359.46 275.37 342.1 270.11 324.73 282.7 311.37 295.71 299.37 309.33 289.13 323.69 280.79 338.91 274.29 355.05 269.29 372.12 265.3 390.07 261.68 390.07 261.68 390.07 261.68" stroke-dasharray="8 9" transform="rotate(90, 400, 400)" opacity="0.97"></path><path d="M385.5 274.4Q396.64 286.94 408.42 298.91 420.96 309.87 434.37 319.48 448.73 327.54 464.04 334.01 480.29 339.01 497.42 342.84 506.47 358.83 516.12 374.81 524.72 390.79 530.79 406.77 533.28 422.76 531.76 438.74 526.5 454.72 518.4 470.7 499.86 483.48 481.41 495.05 463.26 504.99 445.59 513.06 428.55 519.23 412.25 523.66 396.78 526.69 382.16 528.84 370.35 514.89 359.11 501.47 348.3 489.14 337.75 478.36 327.29 469.4 316.76 462.35 306.01 457.08 294.92 453.29 299.68 437.56 302.76 421.84 303.65 406.11 302.19 390.39 298.63 374.66 293.58 358.93 287.91 343.21 282.6 327.48 293.7 316.08 305.06 306.05 316.82 297.59 329.11 290.73 342.06 285.33 355.74 281.1 377.86 276.01 385.5 274.4" stroke-dasharray="2 0" transform="rotate(96, 400, 400)" opacity="0.77"></path><path d="M382.53 287.12Q393.54 298.48 405.18 309.41 417.52 319.58 430.59 328.72 444.42 336.62 458.97 343.22 474.21 348.53 490.05 352.69 498.39 367.13 506.81 381.56 514.14 396 519.36 410.43 521.73 424.87 520.92 439.3 517.05 453.74 510.66 468.18 494.22 478.86 477.71 488.33 461.28 496.36 445.07 502.85 429.21 507.86 413.82 511.53 398.98 514.16 384.75 516.12 374.99 503.61 365.52 491.48 356.23 480.14 346.99 469.95 337.67 461.14 328.17 453.86 318.38 448.08 308.22 443.68 312.19 429.57 314.59 415.46 315.09 401.35 313.62 387.24 310.38 373.13 305.83 359.02 300.61 344.91 295.43 330.8 305.17 321.41 315.02 313.28 325.11 306.47 335.55 300.93 346.42 296.51 357.84 292.96 376.19 288.54 382.53 287.12" stroke-dasharray="2 9" transform="rotate(102.00000000000001, 400, 400)" opacity="0.86"></path><path d="M381.5 299.84Q392.27 310.01 403.6 319.86 415.49 329.16 427.94 337.69 440.94 345.29 454.46 351.87 468.42 357.4 482.78 361.91 490.2 374.78 497.37 387.65 503.51 400.51 507.93 413.38 510.14 426.25 509.9 439.12 507.24 451.99 502.45 464.86 488.16 473.45 473.71 480.94 459.18 487.25 444.7 492.37 430.36 496.36 416.25 499.37 402.45 501.63 389.04 503.4 380.88 492.33 372.81 481.51 364.73 471.24 356.56 461.79 348.21 453.35 339.61 446.05 330.71 439.95 321.46 435.02 324.6 422.5 326.35 409.99 326.5 397.47 325.05 384.96 322.15 372.45 318.13 359.93 313.43 347.42 308.57 334.91 317.05 327.47 325.56 321.09 334.17 315.75 342.96 311.37 352.02 307.81 361.41 304.87 376.36 301.07 381.5 299.84" stroke-dasharray="6 8" transform="rotate(108, 400, 400)" opacity="0.09"></path><path d="M382.51 312.56Q392.82 321.51 403.56 330.25 414.7 338.6 426.22 346.41 438.11 353.55 450.32 359.94 462.8 365.53 475.5 370.29 481.85 381.57 487.79 392.86 492.82 404.14 496.5 415.42 498.52 426.7 498.72 437.99 497.07 449.27 493.71 460.55 481.58 467.16 469.23 472.88 456.74 477.69 444.18 481.62 431.61 484.74 419.11 487.19 406.73 489.1 394.53 490.68 387.6 481.03 380.61 471.54 373.5 462.42 366.22 453.85 358.72 445.97 350.96 438.91 342.91 432.73 334.55 427.45 336.87 416.52 338.02 405.58 337.88 394.64 336.48 383.71 333.93 372.77 330.46 361.84 327.82 342.61 336.59 329.5 351.33 322.34 366.42 316.83 378.41 313.61 382.51 312.56" stroke-dasharray="4 0" transform="rotate(114, 400, 400)" opacity="0.21"></path><path d="M385.45 325.28Q395 333.01 404.81 340.59 414.88 347.91 425.18 354.88 435.68 361.41 446.37 367.41 457.18 372.85 468.1 377.69 473.32 387.37 478.07 397.05 482.07 406.73 485.07 416.41 486.87 426.09 487.37 435.77 486.53 445.45 484.41 455.13 474.37 459.97 464.13 464.16 453.72 467.7 443.18 470.63 432.56 473.03 421.9 474.98 411.25 476.58 400.63 477.96 394.63 469.72 388.49 461.58 382.19 453.67 375.7 446.1 368.99 438.97 362.05 432.39 351.92 419.04 349.59 402.32 349.23 392.94 347.91 383.57 345.72 374.2 342.8 364.83 340.57 348.73 348.01 338.49 360.31 333.14 372.68 328.84 382.23 326.17 385.45 325.28" stroke-dasharray="6 2" transform="rotate(120, 400, 400)" opacity="0.94"></path><path d="M390.02 338.01Q407 350.87 424.51 363.12 442.4 374.29 460.49 384.01 468.2 400.14 473.64 416.28 475.87 432.41 474.51 448.54 458.28 454.82 441.45 459.44 424.18 462.76 406.67 465.23 396.02 451.62 384.73 438.51 372.74 426.43 360.01 415.82 361.06 400.19 359.34 384.55 355.15 368.91 349.21 353.28 359.68 348.04 369.87 344.06 384.97 339.45 390.02 338.01" stroke-dasharray="0 6" transform="rotate(126, 400, 400)" opacity="0.71"></path><path d="M395.68 350.73Q409.7 361.11 423.91 371.15 438.23 380.6 452.56 389.25 458.17 402.14 462.21 415.03 464.23 427.92 464.02 440.81 451.62 444.91 438.75 448.08 425.51 450.53 411.96 452.51 402.77 441.65 393.09 431.04 382.91 420.95 372.23 411.65 372.41 399.12 370.77 386.58 369.48 366.07 379.71 355.34 391.72 351.85 395.68 350.73" stroke-dasharray="8 2" transform="rotate(132, 400, 400)" opacity="0.52"></path><path d="M401.82 363.46Q412.44 371.3 423.07 378.99 433.7 386.41 444.26 393.46 447.99 403.11 450.78 412.75 448.27 428.47 434.95 436.58 425.56 438.29 415.93 439.79 408.39 431.67 400.56 423.65 392.44 415.85 384.03 408.39 383.63 398.95 382.2 389.52 395.23 366.59 401.82 363.46" stroke-dasharray="1 10" transform="rotate(138, 400, 400)" opacity="0.39"></path><path d="M407.76 376.18Q421.71 386.65 435.5 396.79 434.66 417.3 418.13 427.07 406.99 416.32 395.36 405.81 402.07 380.96 407.76 376.18" stroke-dasharray="2 10" transform="rotate(144, 400, 400)" opacity="0.88"></path></g></svg>